# xmcd
#
# Track frame offsets:
#	187
#	11620
#	24152
#	36375
#	48275
#	61375
#	74175
#	87025
#	100525
#	112060
#	124102
#	135000
#	147965
#	160887
#	174352
#	186280
#	196802
#	210047
#	221927
#	236390
#	251825
#	265445
#	279295
#
# Disc length: 3910 seconds
#
# Revision: 1
# Processed by: cddbd v1.4PL0 Copyright (c) Steve Scherf et al.
# Submitted via: audiograbber 1.81.03
#
DISCID=430f4417
DTITLE=Statler Brothers - Their Greatest Hits And Finest Performances
DYEAR=1900
DGENRE=Country
TTITLE0=All American Girl
TTITLE1=Woman Without A Home
TTITLE2=Monday Morning Secretary
TTITLE3=I've Been Everywhere
TTITLE4=Amanda
TTITLE5=Take Good Care Of Her
TTITLE6=Take Me Home Country Roads
TTITLE7=How Great Thou Art
TTITLE8=Just A Little Talk With Jesus
TTITLE9=He Went To The Cross Loving You
TTITLE10=The Lord's Prayer
TTITLE11=Jesus Take Another Look At Me
TTITLE12=Blue Eyes Crying In The Rain
TTITLE13=Faded Love
TTITLE14=When My Blue Moon Turns To Gold Again
TTITLE15=Tender Years
TTITLE16=Delta Dawn
TTITLE17=Never Ending Song of Love
TTITLE18=I Forgot More Than You'll Ever Know
TTITLE19=All I Have to Offer You Is Me
TTITLE20=She Thinks I Still Care
TTITLE21=I Believe in Music
TTITLE22=Me and Bobby McGee
EXTD=ID3G: 2
EXTT0=
EXTT1=
EXTT2=
EXTT3=
EXTT4=
EXTT5=
EXTT6=
EXTT7=
EXTT8=
EXTT9=
EXTT10=
EXTT11=
EXTT12=
EXTT13=
EXTT14=
EXTT15=
EXTT16=
EXTT17=
EXTT18=
EXTT19=
EXTT20=
EXTT21=
EXTT22=
PLAYORDER=
